<svg xmlns="http://www.w3.org/2000/svg" width="150" height="150" fill="#FFF"><g data-name="Layer 2"><path d="M75 0a75 75 0 0 0-27.3 144.9c-.7-5.9-1.2-15.1.3-21.5L56.7 86a27.1 27.1 0 0 1-2.2-11.1c0-10.4 6-18.2 13.6-18.2s9.5 4.8 9.5 10.6-4.1 16.1-6.2 25 3.7 13.6 11.1 13.6c13.3 0 23.6-14.1 23.6-34.3 0-18-12.9-30.5-31.3-30.5-21.3 0-33.9 16-33.9 32.5 0 6.4 2.5 13.4 5.6 17.1a2.2 2.2 0 0 1 .5 2.2l-2.1 8.5c-.3 1.4-1.1 1.7-2.5 1-9.4-4.5-15.3-18.2-15.3-29.2 0-23.7 17.2-45.4 49.6-45.4 26 0 46.2 18.5 46.2 43.3s-16.3 46.7-38.9 46.7c-7.6 0-14.7-3.9-17.2-8.6L62.1 127c-1.7 6.5-6.3 14.7-9.3 19.7A75 75 0 1 0 75 0" data-name="Layer 1"/></g></svg>