<svg xmlns="http://www.w3.org/2000/svg" width="150" height="150"><g data-name="Layer 2"><g fill="#fff" data-name="Layer 1"><path d="M67.1 86.9L86.6 75 67.1 63.1v23.8z"/><path d="M75 0a75 75 0 1 0 75 75A75 75 0 0 0 75 0zm37.5 75.1c0 1.1-.1 13.3-1.6 19.3a9.8 9.8 0 0 1-6.6 7.1c-5.8 1.7-29.3 1.7-29.3 1.7h-.1c-1.5 0-23.6-.1-29.2-1.7a9.8 9.8 0 0 1-6.6-7.1c-1.4-5.4-1.5-15.9-1.6-18.7v-1.4c0-2.8.2-13.3 1.6-18.7a9.8 9.8 0 0 1 6.6-7.1c5-1.4 23.2-1.6 28.1-1.7h2.5c4.9 0 23 .2 28.1 1.7a9.8 9.8 0 0 1 6.6 7.1c1.6 6.3 1.6 19.3 1.6 19.3z"/></g></g></svg>